<svg xmlns="http://www.w3.org/2000/svg" viewBox="0 0 512 512">
  <defs>
    <radialGradient id="bg" cx="50%" cy="40%" r="70%"><stop offset="0" stop-color="#3b1470"/><stop offset="1" stop-color="#06031a"/></radialGradient>
    <radialGradient id="sun" cx="40%" cy="40%" r="60%"><stop offset="0" stop-color="#fff3c4"/><stop offset=".5" stop-color="#f5b83d"/><stop offset="1" stop-color="#d9480f"/></radialGradient>
  </defs>
  <rect width="512" height="512" rx="112" fill="url(#bg)"/>
  <circle cx="256" cy="256" r="190" fill="none" stroke="#f5c26b" stroke-width="6" opacity=".8"/>
  <circle cx="256" cy="256" r="150" fill="none" stroke="#f5c26b" stroke-width="3" opacity=".45"/>
  <g stroke="#f5c26b" stroke-width="3" opacity=".55">
    <line x1="256" y1="66" x2="256" y2="106"/><line x1="256" y1="406" x2="256" y2="446"/>
    <line x1="66" y1="256" x2="106" y2="256"/><line x1="406" y1="256" x2="446" y2="256"/>
    <line x1="122" y1="122" x2="150" y2="150"/><line x1="362" y1="362" x2="390" y2="390"/>
    <line x1="390" y1="122" x2="362" y2="150"/><line x1="122" y1="390" x2="150" y2="362"/>
  </g>
  <circle cx="256" cy="256" r="78" fill="url(#sun)"/>
  <ellipse cx="256" cy="256" rx="130" ry="30" fill="none" stroke="#ffdf9e" stroke-width="7" transform="rotate(-20 256 256)" opacity=".85"/>
  <circle cx="410" cy="150" r="20" fill="#e6e9ff"/>
  <circle cx="118" cy="380" r="13" fill="#ff7b5c"/>
</svg>
